<svg xmlns="http://www.w3.org/2000/svg" width="22.38" height="19.25" viewBox="0 0 22.38 19.25">
  <defs>
    <style>
      .cls-1 {
        fill: #8f8e91;
        fill-rule: evenodd;
      }
    </style>
  </defs>
  <path id="google" class="cls-1" d="M1149.7,4830.46v3.41h-1.4v-3.41h-3.5v-1.4h3.5v-3.42h1.4v3.42h3.5v1.4h-3.5Zm-9.68-3.46a3.587,3.587,0,0,1,1.97,3.26,3.8,3.8,0,0,1-1.73,2.94c-0.96.74-1.14,1.04-1.14,1.66,0,0.53,1.02,1.44,1.56,1.81a3.984,3.984,0,0,1,2.02,3.77c0,2.1-2.02,4.44-5.76,4.44-3.28,0-6.14-1.57-6.14-3.67,0-2.13,2.61-4.18,5.89-4.18,0.36,0,.69-0.01,1.03-0.01a2.277,2.277,0,0,1-.81-1.62,2.479,2.479,0,0,1,.3-1.1,4.866,4.866,0,0,1-.54-0.01,4.283,4.283,0,0,1-4.5-4.28c0-2.29,2.49-4.39,5.14-4.39h5.9l-1.32,1.38h-1.87Zm-2.7,10.57c-2.27-.02-4.3,1.36-4.3,3.02,0,1.69,1.64,2.93,3.9,2.93,3.19,0,4.3-1.15,4.3-2.84a2.349,2.349,0,0,0-.07-0.6c-0.25-.96-1.13-1.43-2.36-2.28A5.263,5.263,0,0,0,1137.32,4837.57Zm2.55-7.28c-0.27-1.96-1.78-3.54-3.3-3.58s-2.54,1.45-2.28,3.42,1.71,3.59,3.23,3.63S1140.13,4832.25,1139.87,4830.29Z" transform="translate(-1130.81 -4825.63)"/>
</svg>
