<?xml version="1.0" encoding="UTF-8"?><!DOCTYPE svg PUBLIC "-//W3C//DTD SVG 1.1//EN" "http://www.w3.org/Graphics/SVG/1.1/DTD/svg11.dtd"><svg xmlns="http://www.w3.org/2000/svg"><defs><style>.cls-1{fill:#454546;fill-rule:evenodd}</style><style>.cls-1{fill:#454546;fill-rule:evenodd}</style><style>.cls-1{fill:#8f8e91;fill-rule:evenodd}</style><style>.cls-1{fill:#8f8e91;fill-rule:evenodd}</style><style>.cls-1{fill:#8f8e91;fill-rule:evenodd}</style><style>.cls-1{fill:#1dde85;fill-rule:evenodd}</style><style>.cls-1{fill:#454546;fill-rule:evenodd}</style><style>.cls-1{fill:#454546;fill-rule:evenodd}</style><style>.cls-1{fill:#454546;fill-rule:evenodd}</style><style>.cls-1{fill:#8f8e91;fill-rule:evenodd}</style><style>.cls-1{fill:#8f8e91;fill-rule:evenodd}</style><style>.cls-1{fill:#8f8e91;fill-rule:evenodd}</style><style>.cls-1{fill:#1dde85;fill-rule:evenodd}</style><style>.cls-1{fill:#454546;fill-rule:evenodd}</style><style>.cls-1{fill:#8f8e91;fill-rule:evenodd}</style><style>.cls-1{fill:#454546;fill-rule:evenodd}</style><style>.cls-1{fill:#454546;fill-rule:evenodd}</style><style>.cls-1{fill:#8f8e91;fill-rule:evenodd}</style><style>.cls-1{fill:#454546;fill-rule:evenodd}</style><style>.cls-1{fill:#454546;fill-rule:evenodd}</style></defs><symbol id="behance" viewBox="0 0 430.123 430.123"><path d="M388.432 119.12H280.659V92.35h107.782v26.77h-.009zm-179.52 109.775c6.954 10.771 10.429 23.849 10.429 39.203 0 15.878-3.918 30.122-11.889 42.704-5.071 8.326-11.367 15.359-18.932 21.021-8.52 6.548-18.607 11.038-30.203 13.437-11.633 2.403-24.224 3.617-37.787 3.617H0V81.247h129.25c32.579.53 55.676 9.969 69.315 28.506 8.184 11.369 12.239 25.011 12.239 40.868 0 16.362-4.104 29.454-12.368 39.401-4.597 5.577-11.388 10.65-20.378 15.229 13.617 4.985 23.949 12.835 30.854 23.644zM61.722 186.76h56.632c11.638 0 21.046-2.212 28.292-6.634 7.241-4.415 10.854-12.263 10.854-23.531 0-12.449-4.784-20.712-14.375-24.689-8.244-2.763-18.792-4.186-31.591-4.186H61.722v59.04zm101.231 77.515c0-13.902-5.682-23.513-17.023-28.67-6.342-2.931-15.29-4.429-26.763-4.536H61.722v71.322h56.556c11.619 0 20.612-1.521 27.102-4.694 11.704-5.834 17.573-16.937 17.573-33.422zm265.466-43.539c1.302 8.756 1.891 21.46 1.652 38.065H290.493c.77 19.266 7.421 32.739 20.035 40.449 7.607 4.835 16.83 7.196 27.63 7.196 11.388 0 20.67-2.879 27.815-8.797 3.893-3.137 7.327-7.565 10.296-13.152h51.16c-1.34 11.379-7.5 22.92-18.57 34.648-17.151 18.641-41.205 27.988-72.097 27.988-25.52 0-48.011-7.883-67.533-23.592C249.772 307.777 240 282.211 240 246.746c0-33.257 8.773-58.712 26.378-76.43 17.67-17.751 40.474-26.586 68.583-26.586 16.661 0 31.68 2.978 45.079 8.965 13.357 5.993 24.396 15.425 33.09 28.388 7.868 11.416 12.928 24.616 15.289 39.653zm-50.357 4.994c-.938-13.322-5.386-23.405-13.395-30.296-7.943-6.91-17.866-10.379-29.706-10.379-12.886 0-22.836 3.708-29.906 10.996-7.118 7.273-11.547 17.161-13.362 29.68h86.369v-.001z"/></symbol><symbol id="camera" viewBox="0 0 32 26"><path id="CAMERA" class="cls-1" d="M813.5 1501h-29a1.5 1.5 0 0 1-1.5-1.5v-20a1.5 1.5 0 0 1 1.5-1.5h6.406l2.4-2.4a1.5 1.5 0 0 1 1.191-.6h9a1.488 1.488 0 0 1 1.073.45l2.546 2.55h6.384a1.5 1.5 0 0 1 1.5 1.5v20a1.5 1.5 0 0 1-1.5 1.5zm-14.5-21a9 9 0 1 0 9 9 9 9 0 0 0-9-9zm0 15a6 6 0 1 1 6-6 6 6 0 0 1-6 6z" transform="translate(-783 -1475)"/></symbol><symbol id="code" viewBox="0 0 38.406 28.82"><path id="CODE" class="cls-1" d="M412.678 1189.29l-7.2 7.2a1.8 1.8 0 0 1-3.053-1.29 1.774 1.774 0 0 1 .511-1.25l5.936-5.94-5.918-5.92a1.8 1.8 0 1 1 2.542-2.54l7.1 7.09a1.787 1.787 0 0 1 .082 2.65zm-21.778 11.92a1.8 1.8 0 1 1-3.374-1.26l9.587-25.16a1.8 1.8 0 1 1 3.373 1.26zm-5.821-19.12l-5.918 5.92 5.937 5.94a1.773 1.773 0 0 1 .51 1.25 1.8 1.8 0 0 1-3.052 1.29l-7.2-7.2a1.786 1.786 0 0 1 .084-2.65l7.1-7.09a1.781 1.781 0 0 1 1.29-.55 1.8 1.8 0 0 1 1.252 3.09z" transform="translate(-374.813 -1173.59)"/></symbol><symbol id="facebook" viewBox="0 0 10.5 22.22"><path id="facebook" class="cls-1" d="M1052.73 4823.97v3.58s-2.66-.26-3.32.75c-.37.55-.15 2.17-.18 3.33h3.52c-.3 1.36-.51 2.28-.73 3.45h-2.81v11.12h-4.88v-11.07h-2.08v-3.5h2.05c.11-2.56.15-5.09 1.43-6.38 1.44-1.45 2.81-1.28 7-1.28z" transform="translate(-1042.25 -4823.97)"/></symbol><symbol id="google" viewBox="0 0 22.38 19.25"><path id="google" class="cls-1" d="M1149.7 4830.46v3.41h-1.4v-3.41h-3.5v-1.4h3.5v-3.42h1.4v3.42h3.5v1.4h-3.5zm-9.68-3.46a3.587 3.587 0 0 1 1.97 3.26 3.8 3.8 0 0 1-1.73 2.94c-.96.74-1.14 1.04-1.14 1.66 0 .53 1.02 1.44 1.56 1.81a3.984 3.984 0 0 1 2.02 3.77c0 2.1-2.02 4.44-5.76 4.44-3.28 0-6.14-1.57-6.14-3.67 0-2.13 2.61-4.18 5.89-4.18.36 0 .69-.01 1.03-.01a2.277 2.277 0 0 1-.81-1.62 2.479 2.479 0 0 1 .3-1.1 4.866 4.866 0 0 1-.54-.01 4.283 4.283 0 0 1-4.5-4.28c0-2.29 2.49-4.39 5.14-4.39h5.9l-1.32 1.38h-1.87zm-2.7 10.57c-2.27-.02-4.3 1.36-4.3 3.02 0 1.69 1.64 2.93 3.9 2.93 3.19 0 4.3-1.15 4.3-2.84a2.349 2.349 0 0 0-.07-.6c-.25-.96-1.13-1.43-2.36-2.28a5.263 5.263 0 0 0-1.47-.23zm2.55-7.28c-.27-1.96-1.78-3.54-3.3-3.58s-2.54 1.45-2.28 3.42 1.71 3.59 3.23 3.63 2.61-1.51 2.35-3.47z" transform="translate(-1130.81 -4825.63)"/></symbol><symbol id="linkedin" viewBox="0 0 22.38 21.32"><path id="linkedin" class="cls-1" d="M1196.21 4845.92v-7.76c0-1.6-.46-3.19-2.33-3.19s-2.66 1.59-2.66 3.22v7.73h-5v-14.22h5v1.92a5.089 5.089 0 0 1 4.53-2.36c2.08 0 5.45.96 5.45 6.58v8.08h-4.99zm-14.62-16.32a2.525 2.525 0 1 1 2.8-2.51 2.666 2.666 0 0 1-2.8 2.51zm2.5 16.32h-5.01v-14.22h5.01v14.22z" transform="translate(-1178.81 -4824.59)"/></symbol><symbol id="mac" viewBox="0 0 29.75 26.88"><path id="IMAC" class="cls-1" d="M810.44 1195.64h-9.12v2.4l1.92 1.92v.48h-12.48v-.48l1.92-1.92v-2.4h-9.12a1.437 1.437 0 0 1-1.44-1.44V1175a1.437 1.437 0 0 1 1.44-1.44h26.88a1.437 1.437 0 0 1 1.44 1.44v19.2a1.437 1.437 0 0 1-1.44 1.44zm-.48-20.16h-25.92v16.32h25.92v-16.32z" transform="translate(-782.125 -1173.56)"/></symbol><symbol id="photo" viewBox="0 0 32 32"><path id="BRIGHTNESS_HIGH" data-name="BRIGHTNESS / HIGH" class="cls-1" d="M1220.5 1489.5h-4a1.5 1.5 0 0 1 0-3h4a1.5 1.5 0 0 1 0 3zm-2.44-11.44l-2.72 2.72-.78.78a1.5 1.5 0 0 1-2.56-1.06 1.488 1.488 0 0 1 .44-1.06l.78-.78 2.72-2.72a1.5 1.5 0 1 1 2.12 2.12zM1206 1494a6 6 0 0 1-5.22-3.04l-.59-1.48a6 6 0 1 1 5.81 4.52zm0-9a3 3 0 1 0 3 3 3 3 0 0 0-3-3zm0-6a1.5 1.5 0 0 1-1.5-1.5v-4a1.5 1.5 0 0 1 3 0v4a1.5 1.5 0 0 1-1.5 1.5zm-6.44 17.56l-.78.78-2.72 2.72a1.5 1.5 0 1 1-2.12-2.12l2.72-2.72.78-.78a1.5 1.5 0 1 1 2.12 2.12zm-1.06-14.56a1.505 1.505 0 0 1-1.06-.44l-.78-.78-2.72-2.72a1.5 1.5 0 1 1 2.12-2.12l2.72 2.72.78.78a1.5 1.5 0 0 1-1.06 2.56zm-3 4.5a1.5 1.5 0 0 1 0 3h-4a1.5 1.5 0 0 1 0-3h4zm10.5 10.5a1.5 1.5 0 0 1 1.5 1.5v4a1.5 1.5 0 0 1-3 0v-4a1.5 1.5 0 0 1 1.5-1.5zm7.5-3a1.505 1.505 0 0 1 1.06.44l.78.78 2.72 2.72a1.5 1.5 0 1 1-2.12 2.12l-2.72-2.72-.78-.78a1.5 1.5 0 0 1 1.06-2.56z" transform="translate(-1190 -1472)"/></symbol><symbol id="svg"><symbol id="camera" viewBox="0 0 32 26"><path id="CAMERA" class="cls-1" d="M813.5 1501h-29a1.5 1.5 0 0 1-1.5-1.5v-20a1.5 1.5 0 0 1 1.5-1.5h6.406l2.4-2.4a1.5 1.5 0 0 1 1.191-.6h9a1.488 1.488 0 0 1 1.073.45l2.546 2.55h6.384a1.5 1.5 0 0 1 1.5 1.5v20a1.5 1.5 0 0 1-1.5 1.5zm-14.5-21a9 9 0 1 0 9 9 9 9 0 0 0-9-9zm0 15a6 6 0 1 1 6-6 6 6 0 0 1-6 6z" transform="translate(-783 -1475)"/></symbol><symbol id="code" viewBox="0 0 38.406 28.82"><path id="CODE" class="cls-1" d="M412.678 1189.29l-7.2 7.2a1.8 1.8 0 0 1-3.053-1.29 1.774 1.774 0 0 1 .511-1.25l5.936-5.94-5.918-5.92a1.8 1.8 0 1 1 2.542-2.54l7.1 7.09a1.787 1.787 0 0 1 .082 2.65zm-21.778 11.92a1.8 1.8 0 1 1-3.374-1.26l9.587-25.16a1.8 1.8 0 1 1 3.373 1.26zm-5.821-19.12l-5.918 5.92 5.937 5.94a1.773 1.773 0 0 1 .51 1.25 1.8 1.8 0 0 1-3.052 1.29l-7.2-7.2a1.786 1.786 0 0 1 .084-2.65l7.1-7.09a1.781 1.781 0 0 1 1.29-.55 1.8 1.8 0 0 1 1.252 3.09z" transform="translate(-374.813 -1173.59)"/></symbol><symbol id="facebook" viewBox="0 0 10.5 22.22"><path id="facebook" class="cls-1" d="M1052.73 4823.97v3.58s-2.66-.26-3.32.75c-.37.55-.15 2.17-.18 3.33h3.52c-.3 1.36-.51 2.28-.73 3.45h-2.81v11.12h-4.88v-11.07h-2.08v-3.5h2.05c.11-2.56.15-5.09 1.43-6.38 1.44-1.45 2.81-1.28 7-1.28z" transform="translate(-1042.25 -4823.97)"/></symbol><symbol id="google" viewBox="0 0 22.38 19.25"><path id="google" class="cls-1" d="M1149.7 4830.46v3.41h-1.4v-3.41h-3.5v-1.4h3.5v-3.42h1.4v3.42h3.5v1.4h-3.5zm-9.68-3.46a3.587 3.587 0 0 1 1.97 3.26 3.8 3.8 0 0 1-1.73 2.94c-.96.74-1.14 1.04-1.14 1.66 0 .53 1.02 1.44 1.56 1.81a3.984 3.984 0 0 1 2.02 3.77c0 2.1-2.02 4.44-5.76 4.44-3.28 0-6.14-1.57-6.14-3.67 0-2.13 2.61-4.18 5.89-4.18.36 0 .69-.01 1.03-.01a2.277 2.277 0 0 1-.81-1.62 2.479 2.479 0 0 1 .3-1.1 4.866 4.866 0 0 1-.54-.01 4.283 4.283 0 0 1-4.5-4.28c0-2.29 2.49-4.39 5.14-4.39h5.9l-1.32 1.38h-1.87zm-2.7 10.57c-2.27-.02-4.3 1.36-4.3 3.02 0 1.69 1.64 2.93 3.9 2.93 3.19 0 4.3-1.15 4.3-2.84a2.349 2.349 0 0 0-.07-.6c-.25-.96-1.13-1.43-2.36-2.28a5.263 5.263 0 0 0-1.47-.23zm2.55-7.28c-.27-1.96-1.78-3.54-3.3-3.58s-2.54 1.45-2.28 3.42 1.71 3.59 3.23 3.63 2.61-1.51 2.35-3.47z" transform="translate(-1130.81 -4825.63)"/></symbol><symbol id="linkedin" viewBox="0 0 22.38 21.32"><path id="linkedin" class="cls-1" d="M1196.21 4845.92v-7.76c0-1.6-.46-3.19-2.33-3.19s-2.66 1.59-2.66 3.22v7.73h-5v-14.22h5v1.92a5.089 5.089 0 0 1 4.53-2.36c2.08 0 5.45.96 5.45 6.58v8.08h-4.99zm-14.62-16.32a2.525 2.525 0 1 1 2.8-2.51 2.666 2.666 0 0 1-2.8 2.51zm2.5 16.32h-5.01v-14.22h5.01v14.22z" transform="translate(-1178.81 -4824.59)"/></symbol><symbol id="mac" viewBox="0 0 29.75 26.88"><path id="IMAC" class="cls-1" d="M810.44 1195.64h-9.12v2.4l1.92 1.92v.48h-12.48v-.48l1.92-1.92v-2.4h-9.12a1.437 1.437 0 0 1-1.44-1.44V1175a1.437 1.437 0 0 1 1.44-1.44h26.88a1.437 1.437 0 0 1 1.44 1.44v19.2a1.437 1.437 0 0 1-1.44 1.44zm-.48-20.16h-25.92v16.32h25.92v-16.32z" transform="translate(-782.125 -1173.56)"/></symbol><symbol id="photo" viewBox="0 0 32 32"><path id="BRIGHTNESS_HIGH" data-name="BRIGHTNESS / HIGH" class="cls-1" d="M1220.5 1489.5h-4a1.5 1.5 0 0 1 0-3h4a1.5 1.5 0 0 1 0 3zm-2.44-11.44l-2.72 2.72-.78.78a1.5 1.5 0 0 1-2.56-1.06 1.488 1.488 0 0 1 .44-1.06l.78-.78 2.72-2.72a1.5 1.5 0 1 1 2.12 2.12zM1206 1494a6 6 0 0 1-5.22-3.04l-.59-1.48a6 6 0 1 1 5.81 4.52zm0-9a3 3 0 1 0 3 3 3 3 0 0 0-3-3zm0-6a1.5 1.5 0 0 1-1.5-1.5v-4a1.5 1.5 0 0 1 3 0v4a1.5 1.5 0 0 1-1.5 1.5zm-6.44 17.56l-.78.78-2.72 2.72a1.5 1.5 0 1 1-2.12-2.12l2.72-2.72.78-.78a1.5 1.5 0 1 1 2.12 2.12zm-1.06-14.56a1.505 1.505 0 0 1-1.06-.44l-.78-.78-2.72-2.72a1.5 1.5 0 1 1 2.12-2.12l2.72 2.72.78.78a1.5 1.5 0 0 1-1.06 2.56zm-3 4.5a1.5 1.5 0 0 1 0 3h-4a1.5 1.5 0 0 1 0-3h4zm10.5 10.5a1.5 1.5 0 0 1 1.5 1.5v4a1.5 1.5 0 0 1-3 0v-4a1.5 1.5 0 0 1 1.5-1.5zm7.5-3a1.505 1.505 0 0 1 1.06.44l.78.78 2.72 2.72a1.5 1.5 0 1 1-2.12 2.12l-2.72-2.72-.78-.78a1.5 1.5 0 0 1 1.06-2.56z" transform="translate(-1190 -1472)"/></symbol><symbol id="twitter" viewBox="0 0 22.38 18.19"><path id="twitter" class="cls-1" d="M1099.04 4825.94a4.711 4.711 0 0 1 3.63 1.44 7.749 7.749 0 0 0 2.35-.79c.19-.11.38-.21.57-.32a4.553 4.553 0 0 1-1.49 2.16 2.276 2.276 0 0 1-.5.36v.01a8.4 8.4 0 0 0 2.6-.71v.02a7.4 7.4 0 0 1-1.56 1.78l-.72.57a12.7 12.7 0 0 1-.21 2.96c-1.15 5.15-4.19 8.66-9 10.16a13.761 13.761 0 0 1-6.5.26 16.882 16.882 0 0 1-2.71-.88 10.6 10.6 0 0 1-1.3-.67c-.13-.08-.27-.16-.4-.25a7.092 7.092 0 0 0 1.47.06c.45-.07.89-.05 1.31-.15a9.107 9.107 0 0 0 2.76-.99 5.138 5.138 0 0 0 1.24-.82 4.085 4.085 0 0 1-1.37-.24 4.628 4.628 0 0 1-2.91-2.94 4.486 4.486 0 0 0 2.05-.09 3.366 3.366 0 0 1-1.5-.6 4.418 4.418 0 0 1-2.16-3.94c.15.08.31.15.47.22a4.489 4.489 0 0 0 .96.27 1.461 1.461 0 0 0 .63.06h-.02c-.24-.27-.61-.45-.84-.74a4.7 4.7 0 0 1-1.04-4.17 5.319 5.319 0 0 1 .5-1.19.031.031 0 0 1 .02.01 3.717 3.717 0 0 0 .41.48 8.866 8.866 0 0 0 1.37 1.3 13.488 13.488 0 0 0 5.62 2.72 8.776 8.776 0 0 0 2.06.27 4.386 4.386 0 0 1 .02-2.16 4.519 4.519 0 0 1 2.61-3.08 5.075 5.075 0 0 1 1.02-.32z" transform="translate(-1083.81 -4825.94)"/></symbol><symbol id="view" viewBox="0 0 35.219 20.38"><path id="VIEW" class="cls-1" d="M409.549 1487.57v.04a.08.08 0 0 1 0 .02.271.271 0 0 1 0 .04.157.157 0 0 1 0 .03v.01a1.358 1.358 0 0 1-.368.74c-.369.45-.773.87-1.179 1.28a30.33 30.33 0 0 1-7.465 5.65 19.732 19.732 0 0 1-5.594 2.02 16 16 0 0 1-6.428-.09 24.271 24.271 0 0 1-9.965-5.18 27.322 27.322 0 0 1-3.817-3.68 1.407 1.407 0 0 1 0-1.9c.369-.45.772-.87 1.178-1.28a30.316 30.316 0 0 1 7.466-5.65 19.726 19.726 0 0 1 5.593-2.02 16 16 0 0 1 6.429.09 24.267 24.267 0 0 1 9.964 5.18 27.377 27.377 0 0 1 3.817 3.68 1.345 1.345 0 0 1 .368.74.034.034 0 0 0 0 .01v.2c0 .02.002.05.001.07zm-17.6-6.95a6.6 6.6 0 1 0 6.6 6.6 6.6 6.6 0 0 0-6.599-6.6zm0 9.9a3.3 3.3 0 1 1 3.3-3.3 3.295 3.295 0 0 1-3.299 3.3z" transform="translate(-374.344 -1477.31)"/></symbol><symbol id="wifi" viewBox="0 0 31.62 28.5"><path id="WIFI_3" data-name="WIFI 3" class="cls-1" d="M1218.96 1181.94a19.97 19.97 0 0 0-27.92 0l-1.85-2.39a22.988 22.988 0 0 1 31.62 0zm-13.96-1.19a15.434 15.434 0 0 1 11.18 4.77l-1.87 2.41a12.458 12.458 0 0 0-18.62 0l-1.87-2.41a15.434 15.434 0 0 1 11.18-4.77zm0 7.5a7.955 7.955 0 0 1 6.48 3.33l-1.65 2.12a5.986 5.986 0 0 0-9.66 0l-1.65-2.12a7.955 7.955 0 0 1 6.48-3.33zm0 7.5a3 3 0 1 1-3 3 3 3 0 0 1 3-3z" transform="translate(-1189.19 -1173.25)"/></symbol></symbol><symbol id="twitter" viewBox="0 0 22.38 18.19"><path id="twitter" class="cls-1" d="M1099.04 4825.94a4.711 4.711 0 0 1 3.63 1.44 7.749 7.749 0 0 0 2.35-.79c.19-.11.38-.21.57-.32a4.553 4.553 0 0 1-1.49 2.16 2.276 2.276 0 0 1-.5.36v.01a8.4 8.4 0 0 0 2.6-.71v.02a7.4 7.4 0 0 1-1.56 1.78l-.72.57a12.7 12.7 0 0 1-.21 2.96c-1.15 5.15-4.19 8.66-9 10.16a13.761 13.761 0 0 1-6.5.26 16.882 16.882 0 0 1-2.71-.88 10.6 10.6 0 0 1-1.3-.67c-.13-.08-.27-.16-.4-.25a7.092 7.092 0 0 0 1.47.06c.45-.07.89-.05 1.31-.15a9.107 9.107 0 0 0 2.76-.99 5.138 5.138 0 0 0 1.24-.82 4.085 4.085 0 0 1-1.37-.24 4.628 4.628 0 0 1-2.91-2.94 4.486 4.486 0 0 0 2.05-.09 3.366 3.366 0 0 1-1.5-.6 4.418 4.418 0 0 1-2.16-3.94c.15.08.31.15.47.22a4.489 4.489 0 0 0 .96.27 1.461 1.461 0 0 0 .63.06h-.02c-.24-.27-.61-.45-.84-.74a4.7 4.7 0 0 1-1.04-4.17 5.319 5.319 0 0 1 .5-1.19.031.031 0 0 1 .02.01 3.717 3.717 0 0 0 .41.48 8.866 8.866 0 0 0 1.37 1.3 13.488 13.488 0 0 0 5.62 2.72 8.776 8.776 0 0 0 2.06.27 4.386 4.386 0 0 1 .02-2.16 4.519 4.519 0 0 1 2.61-3.08 5.075 5.075 0 0 1 1.02-.32z" transform="translate(-1083.81 -4825.94)"/></symbol><symbol id="view" viewBox="0 0 35.219 20.38"><path id="VIEW" class="cls-1" d="M409.549 1487.57v.04a.08.08 0 0 1 0 .02.271.271 0 0 1 0 .04.157.157 0 0 1 0 .03v.01a1.358 1.358 0 0 1-.368.74c-.369.45-.773.87-1.179 1.28a30.33 30.33 0 0 1-7.465 5.65 19.732 19.732 0 0 1-5.594 2.02 16 16 0 0 1-6.428-.09 24.271 24.271 0 0 1-9.965-5.18 27.322 27.322 0 0 1-3.817-3.68 1.407 1.407 0 0 1 0-1.9c.369-.45.772-.87 1.178-1.28a30.316 30.316 0 0 1 7.466-5.65 19.726 19.726 0 0 1 5.593-2.02 16 16 0 0 1 6.429.09 24.267 24.267 0 0 1 9.964 5.18 27.377 27.377 0 0 1 3.817 3.68 1.345 1.345 0 0 1 .368.74.034.034 0 0 0 0 .01v.2c0 .02.002.05.001.07zm-17.6-6.95a6.6 6.6 0 1 0 6.6 6.6 6.6 6.6 0 0 0-6.599-6.6zm0 9.9a3.3 3.3 0 1 1 3.3-3.3 3.295 3.295 0 0 1-3.299 3.3z" transform="translate(-374.344 -1477.31)"/></symbol><symbol id="wifi" viewBox="0 0 31.62 28.5"><path id="WIFI_3" data-name="WIFI 3" class="cls-1" d="M1218.96 1181.94a19.97 19.97 0 0 0-27.92 0l-1.85-2.39a22.988 22.988 0 0 1 31.62 0zm-13.96-1.19a15.434 15.434 0 0 1 11.18 4.77l-1.87 2.41a12.458 12.458 0 0 0-18.62 0l-1.87-2.41a15.434 15.434 0 0 1 11.18-4.77zm0 7.5a7.955 7.955 0 0 1 6.48 3.33l-1.65 2.12a5.986 5.986 0 0 0-9.66 0l-1.65-2.12a7.955 7.955 0 0 1 6.48-3.33zm0 7.5a3 3 0 1 1-3 3 3 3 0 0 1 3-3z" transform="translate(-1189.19 -1173.25)"/></symbol></svg>